<svg width="401" height="288" viewBox="0 0 401 288" fill="none" xmlns="http://www.w3.org/2000/svg">
<path d="M376.02 287.447C378.84 276.887 388.02 241.447 394.29 205.497C401.74 162.617 408.29 103.497 378.45 78.767C348.61 54.037 309.45 83.527 288.99 74.007C268.53 64.487 267.56 16.827 212.59 2.53701C157.62 -11.753 126.86 37.797 102.59 64.477C78.3203 91.157 51.4103 73.047 15.9803 101.637C-19.0197 129.907 10.6603 257.927 36.5603 287.447H376.02Z" fill="#4CAF50"/>
<path opacity="0.8" d="M376.02 287.447C378.84 276.887 388.02 241.447 394.29 205.497C401.74 162.617 408.29 103.497 378.45 78.767C348.61 54.037 309.45 83.527 288.99 74.007C268.53 64.487 267.56 16.827 212.59 2.53701C157.62 -11.753 126.86 37.797 102.59 64.477C78.3203 91.157 51.4103 73.047 15.9803 101.637C-19.0197 129.907 10.6603 257.927 36.5603 287.447H376.02Z" fill="white"/>
<path d="M164.25 182.992H101.81C101.81 182.992 96.05 183.992 97.97 195.482C99.89 206.972 109.5 280.482 109.5 280.482H196.44L177.44 186.992C177.44 186.992 176.74 182.032 164.25 182.992Z" fill="white" stroke="#263238" stroke-linecap="round" stroke-linejoin="round"/>
<path d="M97.9708 195.482C99.8908 207.012 109.501 280.482 109.501 280.482H120.891C118.321 263.082 108.781 198.622 107.121 191.152C105.461 183.682 102.751 183.032 102.021 182.982H101.831C101.831 182.982 96.0508 183.952 97.9708 195.482Z" fill="#263238" stroke="#263238" stroke-linecap="round" stroke-linejoin="round"/>
<path d="M177.941 181.572C177.941 181.572 141.181 195.272 135.421 199.112C129.661 202.952 123.891 209.682 123.891 218.812C123.891 227.942 129.181 280.322 129.181 280.322H251.941C251.941 280.322 236.571 226.262 231.521 214.972C228.701 208.662 225.871 201.652 221.101 196.502C214.861 189.772 205.701 185.692 196.961 183.312C193.72 182.502 190.407 182.013 187.071 181.852C184.511 181.652 180.401 180.662 177.941 181.572Z" fill="#4CAF50"/>
<mask id="mask0_41_9683" style="mask-type:luminance" maskUnits="userSpaceOnUse" x="123" y="181" width="129" height="100">
<path d="M177.941 181.572C177.941 181.572 141.181 195.272 135.421 199.112C129.661 202.952 123.891 209.682 123.891 218.812C123.891 227.942 129.181 280.322 129.181 280.322H251.941C251.941 280.322 236.571 226.262 231.521 214.972C228.701 208.662 225.871 201.652 221.101 196.502C214.861 189.772 205.701 185.692 196.961 183.312C193.72 182.502 190.407 182.013 187.071 181.852C184.511 181.652 180.401 180.662 177.941 181.572Z" fill="white"/>
</mask>
<g mask="url(#mask0_41_9683)">
<path opacity="0.2" d="M243.15 280.322C244.32 278.892 245.01 277.912 245.01 277.912L222.23 213.092C222.23 213.092 228.37 242.872 229.23 245.502C230.09 248.132 235.37 260.432 217.89 262.582C200.41 264.732 180.23 261.272 166.21 253.822C152.19 246.372 148.21 226.672 148.21 226.672L147.33 242.002L145.33 280.322H243.15Z" fill="black"/>
</g>
<path d="M177.941 181.572C177.941 181.572 141.181 195.272 135.421 199.112C129.661 202.952 123.891 209.682 123.891 218.812C123.891 227.942 129.181 280.322 129.181 280.322H251.941C251.941 280.322 236.571 226.262 231.521 214.972C228.701 208.662 225.871 201.652 221.101 196.502C214.861 189.772 205.701 185.692 196.961 183.312C193.72 182.502 190.407 182.013 187.071 181.852C184.511 181.652 180.401 180.662 177.941 181.572Z" stroke="#263238" stroke-linecap="round" stroke-linejoin="round"/>
<path d="M186.679 208.982C196.836 208.982 205.069 202.392 205.069 194.262C205.069 186.132 196.836 179.542 186.679 179.542C176.523 179.542 168.289 186.132 168.289 194.262C168.289 202.392 176.523 208.982 186.679 208.982Z" fill="white" stroke="#263238" stroke-linecap="round" stroke-linejoin="round"/>
<path d="M162.091 145.052L160.891 132.282C160.703 130.26 160.924 128.22 161.54 126.284C162.156 124.349 163.154 122.556 164.476 121.014C165.797 119.471 167.415 118.21 169.234 117.304C171.052 116.399 173.033 115.867 175.061 115.742L186.541 115.032C190.847 114.771 195.098 116.105 198.483 118.78C201.868 121.455 204.149 125.282 204.891 129.532L206.341 137.802" stroke="#263238" stroke-width="2" stroke-linecap="round" stroke-linejoin="round"/>
<path d="M206.897 139.015L204.667 139.216C202.43 139.417 200.78 141.393 200.982 143.63L202.242 157.63C202.443 159.867 204.419 161.517 206.656 161.316L208.886 161.115C211.123 160.914 212.773 158.937 212.572 156.7L211.312 142.7C211.11 140.464 209.134 138.814 206.897 139.015Z" fill="white" stroke="#263238" stroke-width="1.00404" stroke-linecap="round" stroke-linejoin="round"/>
<path d="M171.699 172.682C171.699 172.682 173.379 185.682 173.139 187.102C172.899 188.522 173.139 197.672 179.859 201.512C186.579 205.352 193.799 203.682 197.159 198.632C200.519 193.582 197.639 172.202 197.639 172.202C197.639 172.202 182.749 179.652 171.699 172.682Z" fill="white"/>
<mask id="mask1_41_9683" style="mask-type:luminance" maskUnits="userSpaceOnUse" x="171" y="172" width="28" height="32">
<path d="M171.699 172.682C171.699 172.682 173.379 185.682 173.139 187.102C172.899 188.522 173.139 197.672 179.859 201.512C186.579 205.352 193.799 203.682 197.159 198.632C200.519 193.582 197.639 172.202 197.639 172.202C197.639 172.202 182.749 179.652 171.699 172.682Z" fill="white"/>
</mask>
<g mask="url(#mask1_41_9683)">
<path d="M198.579 181.982C198.239 176.662 197.639 172.202 197.639 172.202C197.639 172.202 182.749 179.652 171.699 172.682C171.699 172.682 172.519 179.022 172.929 183.332C178.389 186.572 187.359 189.072 198.579 181.982Z" fill="#4CAF50"/>
<path opacity="0.5" d="M198.579 181.982C198.239 176.662 197.639 172.202 197.639 172.202C197.639 172.202 182.749 179.652 171.699 172.682C171.699 172.682 172.519 179.022 172.929 183.332C178.389 186.572 187.359 189.072 198.579 181.982Z" fill="white"/>
</g>
<path d="M171.699 172.682C171.699 172.682 173.379 185.682 173.139 187.102C172.899 188.522 173.139 197.672 179.859 201.512C186.579 205.352 193.799 203.682 197.159 198.632C200.519 193.582 197.639 172.202 197.639 172.202C197.639 172.202 182.749 179.652 171.699 172.682Z" stroke="#263238" stroke-linecap="round" stroke-linejoin="round"/>
<path d="M185.273 117.163L177.108 118.116C168.358 119.138 162.094 127.059 163.115 135.808L166.577 165.457C167.599 174.206 175.52 180.471 184.27 179.449L192.434 178.496C201.184 177.474 207.448 169.553 206.427 160.804L202.965 131.155C201.943 122.406 194.022 116.141 185.273 117.163Z" fill="white"/>
<mask id="mask2_41_9683" style="mask-type:luminance" maskUnits="userSpaceOnUse" x="163" y="117" width="44" height="63">
<path d="M185.273 117.163L177.108 118.116C168.358 119.138 162.094 127.059 163.115 135.808L166.577 165.457C167.599 174.206 175.52 180.471 184.27 179.449L192.434 178.496C201.184 177.474 207.448 169.553 206.427 160.804L202.965 131.155C201.943 122.406 194.022 116.141 185.273 117.163Z" fill="white"/>
</mask>
<g mask="url(#mask2_41_9683)">
<path d="M179.89 179.431C174.38 173.151 170.62 129.311 171.89 124.591C172.8 121.251 180.25 118.541 184.72 117.191L176.52 118.191C172.484 118.665 168.801 120.722 166.281 123.91C163.761 127.097 162.609 131.155 163.08 135.191L166.69 166.081C167.094 169.457 168.611 172.602 171.001 175.019C173.392 177.436 176.519 178.989 179.89 179.431Z" fill="#4CAF50"/>
<path opacity="0.5" d="M179.89 179.431C174.38 173.151 170.62 129.311 171.89 124.591C172.8 121.251 180.25 118.541 184.72 117.191L176.52 118.191C172.484 118.665 168.801 120.722 166.281 123.91C163.761 127.097 162.609 131.155 163.08 135.191L166.69 166.081C167.094 169.457 168.611 172.602 171.001 175.019C173.392 177.436 176.519 178.989 179.89 179.431Z" fill="white"/>
</g>
<path d="M185.273 117.163L177.108 118.116C168.358 119.138 162.094 127.059 163.115 135.808L166.577 165.457C167.599 174.206 175.52 180.471 184.27 179.449L192.434 178.496C201.184 177.474 207.448 169.553 206.427 160.804L202.965 131.155C201.943 122.406 194.022 116.141 185.273 117.163Z" stroke="#263238" stroke-linecap="round" stroke-linejoin="round"/>
<path d="M206.37 160.173L205.59 153.433C205.42 156.363 204.71 159.983 202.21 159.703C198.04 159.243 198.36 155.143 195.72 153.453C193.08 151.763 187.31 152.453 182.99 154.173C178.67 155.893 179.62 161.863 176.5 164.023C173.38 166.183 170.01 161.143 170.01 161.143L166.65 140.483C166.65 140.483 170.01 136.393 171.65 134.713C173.29 133.033 170.2 132.553 169 130.153C167.8 127.753 171.41 124.863 175.49 121.743C179.57 118.623 183.18 122.743 186.49 122.743C189.8 122.743 192.02 121.303 194.9 119.623L195.06 119.553C191.917 117.638 188.224 116.832 184.57 117.263L177.65 118.073C173.305 118.603 169.347 120.833 166.641 124.273C163.935 127.713 162.702 132.085 163.21 136.433L166.52 164.823C167.029 169.187 169.249 173.171 172.694 175.899C176.138 178.627 180.525 179.877 184.89 179.373L191.81 178.563C193.974 178.313 196.068 177.639 197.972 176.58C199.875 175.52 201.551 174.095 202.904 172.387C204.256 170.679 205.258 168.721 205.853 166.625C206.448 164.529 206.623 162.336 206.37 160.173Z" fill="#263238" stroke="#263238" stroke-linecap="round" stroke-linejoin="round"/>
<path d="M184.189 157.552C184.189 157.552 187.789 160.912 194.759 157.312" stroke="white" stroke-linecap="round" stroke-linejoin="round"/>
<path d="M191.891 138.332C191.891 138.332 192.891 148.182 192.891 150.102C192.891 152.022 189.281 155.152 185.891 150.822" stroke="#263238" stroke-linecap="round" stroke-linejoin="round"/>
<path d="M187.069 136.652C187.069 136.652 182.269 132.082 175.779 137.852" stroke="#263238" stroke-width="2" stroke-linecap="round" stroke-linejoin="round"/>
<path d="M193.08 135.922C193.08 135.922 197.64 132.802 201.49 135.442" stroke="#263238" stroke-width="2" stroke-linecap="round" stroke-linejoin="round"/>
<path d="M184.89 142.892C184.89 143.952 184.41 144.812 183.81 144.812C183.21 144.812 182.73 143.952 182.73 142.892C182.73 141.832 183.21 140.972 183.81 140.972C184.41 140.972 184.89 141.832 184.89 142.892Z" fill="#263238"/>
<path d="M197.519 144.572C198.116 144.572 198.599 143.713 198.599 142.652C198.599 141.592 198.116 140.732 197.519 140.732C196.923 140.732 196.439 141.592 196.439 142.652C196.439 143.713 196.923 144.572 197.519 144.572Z" fill="#263238"/>
<path d="M163.196 142.829L160.982 143.096C158.761 143.363 157.178 145.38 157.445 147.601L159.12 161.5C159.388 163.721 161.405 165.304 163.625 165.037L165.839 164.77C168.06 164.503 169.643 162.486 169.376 160.265L167.701 146.365C167.434 144.145 165.417 142.561 163.196 142.829Z" fill="white" stroke="#263238" stroke-linecap="round" stroke-linejoin="round"/>
<path d="M232.721 269.032C226.721 267.592 218.551 268.032 213.721 267.832C208.891 267.632 178.161 264.942 170.961 262.832C163.761 260.722 152.461 258.752 152.461 258.752L149.331 238.562C135.941 233.282 128.181 238.812 125.461 241.432C127.011 259.202 129.151 280.372 129.151 280.372H237.101L240.171 280.132C240.171 280.132 238.731 270.432 232.721 269.032Z" fill="white"/>
<mask id="mask3_41_9683" style="mask-type:luminance" maskUnits="userSpaceOnUse" x="125" y="236" width="116" height="45">
<path d="M232.721 269.032C226.721 267.592 218.551 268.032 213.721 267.832C208.891 267.632 178.161 264.942 170.961 262.832C163.761 260.722 152.461 258.752 152.461 258.752L149.331 238.562C135.941 233.282 128.181 238.812 125.461 241.432C127.011 259.202 129.151 280.372 129.151 280.372H237.101L240.171 280.132C240.171 280.132 238.731 270.432 232.721 269.032Z" fill="white"/>
</mask>
<g mask="url(#mask3_41_9683)">
<path d="M136.391 273.533C132.551 271.403 129.391 264.813 127.051 258.603C128.181 270.493 129.171 280.323 129.171 280.323H230.891C234.501 277.633 236.651 275.723 236.651 275.723C236.651 275.723 144.281 277.913 136.391 273.533Z" fill="#4CAF50"/>
<path opacity="0.5" d="M136.391 273.533C132.551 271.403 129.391 264.813 127.051 258.603C128.181 270.493 129.171 280.323 129.171 280.323H230.891C234.501 277.633 236.651 275.723 236.651 275.723C236.651 275.723 144.281 277.913 136.391 273.533Z" fill="white"/>
</g>
<path d="M232.721 269.032C226.721 267.592 218.551 268.032 213.721 267.832C208.891 267.632 178.161 264.942 170.961 262.832C163.761 260.722 152.461 258.752 152.461 258.752L149.331 238.562C135.941 233.282 128.181 238.812 125.461 241.432C127.011 259.202 129.151 280.372 129.151 280.372H237.101L240.171 280.132C240.171 280.132 238.731 270.432 232.721 269.032Z" stroke="#263238" stroke-linecap="round" stroke-linejoin="round"/>
<path d="M152.48 258.702C152.48 258.702 144.2 258.902 141.01 264.992" stroke="#263238" stroke-linecap="round" stroke-linejoin="round"/>
<path d="M149.35 238.512L147.67 220.742" stroke="#263238" stroke-linecap="round" stroke-linejoin="round"/>
<path d="M122.891 275.433H117.391C116.948 275.433 116.523 275.257 116.21 274.943C115.897 274.63 115.721 274.205 115.721 273.763V262.563C115.721 262.12 115.897 261.695 116.21 261.382C116.523 261.069 116.948 260.893 117.391 260.893H122.891C123.612 260.893 124.304 261.179 124.814 261.689C125.324 262.199 125.611 262.891 125.611 263.613V272.713C125.611 273.434 125.324 274.126 124.814 274.636C124.304 275.146 123.612 275.433 122.891 275.433ZM118.691 273.063H122.691V263.263H118.691V273.063Z" fill="white" stroke="#263238" stroke-linecap="round" stroke-linejoin="round"/>
<path d="M102.961 260.482H120.891V271.752C120.891 273.466 120.21 275.109 118.999 276.32C117.787 277.532 116.144 278.212 114.431 278.212H109.431C108.583 278.212 107.743 278.045 106.959 277.721C106.175 277.396 105.463 276.92 104.863 276.32C104.263 275.72 103.787 275.008 103.463 274.225C103.138 273.441 102.971 272.601 102.971 271.752V260.482H102.961Z" fill="white" stroke="#263238" stroke-linecap="round" stroke-linejoin="round"/>
<path d="M122.201 279.622H99.8215L95.0215 276.822H126.991L122.201 279.622Z" fill="white" stroke="#263238" stroke-linecap="round" stroke-linejoin="round"/>
<path d="M238.762 209.252L259.582 206.692" stroke="#263238" stroke-width="4" stroke-linecap="round" stroke-linejoin="round"/>
<path d="M257.02 211.972C256.316 211.988 255.624 211.781 255.044 211.382C254.463 210.982 254.023 210.41 253.785 209.747C253.547 209.083 253.524 208.362 253.719 207.684C253.914 207.007 254.317 206.408 254.87 205.972L290.09 176.832C290.777 176.264 291.662 175.991 292.55 176.074C293.438 176.158 294.257 176.591 294.825 177.277C295.394 177.964 295.667 178.849 295.584 179.737C295.5 180.625 295.067 181.444 294.38 182.012L259.16 211.152C258.566 211.669 257.808 211.959 257.02 211.972Z" stroke="#263238" stroke-width="3" stroke-linecap="round" stroke-linejoin="round"/>
<path d="M292.561 175.632C291.722 175.59 290.897 175.86 290.245 176.39C289.593 176.92 289.161 177.672 289.031 178.502C286.661 193.782 275.031 266.712 275.911 267.852C276.791 268.992 288.071 277.772 288.071 277.772C288.071 277.772 284.871 269.772 284.871 266.572C284.871 263.772 293.801 195.442 295.781 179.442C295.838 178.977 295.798 178.506 295.664 178.057C295.53 177.608 295.305 177.192 295.003 176.834C294.7 176.476 294.327 176.185 293.907 175.978C293.487 175.771 293.029 175.654 292.561 175.632Z" stroke="#263238" stroke-width="3" stroke-linecap="round" stroke-linejoin="round"/>
<path d="M232.731 195.722C233.844 197.115 234.519 198.807 234.669 200.583C234.819 202.359 234.439 204.14 233.575 205.7C232.712 207.26 231.405 208.528 229.82 209.344C228.235 210.16 226.443 210.487 224.672 210.283C222.901 210.079 221.231 209.354 219.872 208.199C218.514 207.045 217.529 205.513 217.043 203.798C216.556 202.083 216.59 200.262 217.14 198.566C217.69 196.87 218.731 195.376 220.131 194.272C221.998 192.802 224.37 192.129 226.73 192.401C229.091 192.672 231.248 193.866 232.731 195.722Z" fill="#263238" stroke="#263238" stroke-linecap="round" stroke-linejoin="round"/>
<path d="M244.581 222.822L242.361 224.582C241.98 224.881 241.503 225.032 241.019 225.006C240.536 224.98 240.078 224.78 239.731 224.442L225.961 210.862C225.379 210.286 224.925 209.594 224.63 208.83C224.336 208.066 224.206 207.249 224.251 206.431C224.295 205.614 224.512 204.815 224.888 204.088C225.264 203.361 225.79 202.721 226.431 202.212C227.072 201.703 227.815 201.335 228.609 201.135C229.404 200.934 230.232 200.905 231.038 201.049C231.845 201.192 232.612 201.506 233.288 201.969C233.964 202.431 234.534 203.032 234.961 203.732L245.041 220.232C245.29 220.646 245.381 221.137 245.296 221.613C245.212 222.089 244.957 222.519 244.581 222.822Z" fill="white" stroke="#263238" stroke-linecap="round" stroke-linejoin="round"/>
<path d="M236.961 207.362C236.02 207.195 235.055 207.229 234.13 207.463C233.204 207.697 232.338 208.125 231.59 208.719C230.842 209.313 230.229 210.059 229.791 210.908C229.354 211.756 229.101 212.688 229.051 213.642C229.046 213.728 229.046 213.815 229.051 213.902L231.641 216.462C231.17 215.667 230.938 214.754 230.971 213.832C231.005 212.909 231.302 212.015 231.829 211.256C232.356 210.498 233.089 209.907 233.942 209.553C234.795 209.2 235.732 209.098 236.641 209.262C237.578 209.429 238.445 209.871 239.131 210.532L237.231 207.422C237.14 207.407 237.049 207.387 236.961 207.362Z" fill="#263238"/>
<path d="M244.702 225.433C244.288 225.757 243.763 225.905 243.241 225.845C242.719 225.785 242.242 225.522 241.912 225.113L240.892 223.733C240.568 223.319 240.42 222.794 240.48 222.272C240.54 221.75 240.803 221.272 241.212 220.943C241.626 220.619 242.15 220.471 242.672 220.531C243.195 220.59 243.672 220.853 244.002 221.263L245.062 222.593C245.228 222.801 245.35 223.041 245.422 223.298C245.494 223.555 245.514 223.824 245.48 224.089C245.447 224.353 245.361 224.608 245.227 224.839C245.093 225.07 244.915 225.272 244.702 225.433Z" fill="white" stroke="#263238" stroke-linecap="round" stroke-linejoin="round"/>
<path d="M296.74 280.432H263.82C263.298 280.433 262.797 280.229 262.423 279.864C262.05 279.5 261.833 279.004 261.82 278.482C261.82 277.952 262.031 277.443 262.406 277.068C262.781 276.693 263.29 276.482 263.82 276.482H296.74C297.262 276.495 297.758 276.712 298.122 277.086C298.487 277.459 298.69 277.961 298.69 278.482C298.678 278.996 298.468 279.484 298.105 279.847C297.742 280.21 297.254 280.42 296.74 280.432Z" fill="#263238"/>
<path d="M257.722 213.672C261.025 213.672 263.702 210.995 263.702 207.692C263.702 204.389 261.025 201.712 257.722 201.712C254.42 201.712 251.742 204.389 251.742 207.692C251.742 210.995 254.42 213.672 257.722 213.672Z" fill="#263238"/>
<path d="M292.021 185.822C295.324 185.822 298.001 183.145 298.001 179.842C298.001 176.54 295.324 173.862 292.021 173.862C288.718 173.862 286.041 176.54 286.041 179.842C286.041 183.145 288.718 185.822 292.021 185.822Z" fill="#263238"/>
<path d="M287.401 230.513H219.911L208.391 276.833H275.871L287.401 230.513Z" fill="#263238" stroke="#263238" stroke-linecap="round" stroke-linejoin="round"/>
<path d="M275.171 276.833H174.531V280.123H275.171V276.833Z" fill="#263238" stroke="#263238" stroke-linecap="round" stroke-linejoin="round"/>
<path d="M275.881 276.833H208.391V280.123H275.881V276.833Z" fill="white" stroke="#263238" stroke-linecap="round" stroke-linejoin="round"/>
<path d="M288.141 230.513H220.661L209.141 276.833H276.621L288.141 230.513Z" fill="white" stroke="#263238" stroke-linecap="round" stroke-linejoin="round"/>
<path d="M315 280.013H85V287.213H315V280.013Z" fill="#263238" stroke="#263238" stroke-linecap="round" stroke-linejoin="round"/>
</svg>
